<?xml version="1.0" encoding="utf-8"?>
<!-- Generator: Adobe Illustrator 16.0.0, SVG Export Plug-In . SVG Version: 6.00 Build 0)  -->
<!DOCTYPE svg PUBLIC "-//W3C//DTD SVG 1.1//EN" "http://www.w3.org/Graphics/SVG/1.1/DTD/svg11.dtd">
<svg version="1.1" id="Layer_1" xmlns="http://www.w3.org/2000/svg" xmlns:xlink="http://www.w3.org/1999/xlink" x="0px" y="0px"
	 width="500px" height="500px" viewBox="0 0 500 500" enable-background="new 0 0 500 500" xml:space="preserve">
<g id="XMLID_4_">
	<g>
	</g>
	<g>
		<polygon fill="none" stroke="#FCFDFF" stroke-width="10" stroke-miterlimit="10" points="250.176,39.264 74.229,140.844 
			73.877,343.798 250.176,445.583 425.77,343.798 426.123,140.844 		"/>
	</g>
</g>
<path fill="none" d="M393.642,368.953"/>
<polygon fill="#FFFFFF" points="396.394,191.12 396.394,156.963 367.394,173.946 367.394,174.498 337.394,191.478 337.394,190.696 
	308.394,207.678 308.394,207.808 279.394,224.789 279.394,225.003 250.393,241.773 221.394,225.003 221.394,224.789 
	191.394,207.808 191.394,207.678 162.394,190.696 162.394,191.478 133.394,174.498 133.394,173.946 103.394,156.963 
	103.394,190.876 103.394,190.877 103.394,223.075 103.394,223.074 103.394,256.891 103.394,256.986 103.394,290.436 
	103.394,290.805 103.394,324.35 133.394,341.279 133.394,341.406 162.394,358.336 162.394,358.184 191.394,375.111 191.394,375.498 
	221.394,392.43 221.394,358.643 221.394,358.568 221.394,324.781 191.394,307.799 191.394,341.25 162.394,324.27 162.394,324.475 
	133.394,307.492 133.394,307.418 133.394,273.916 133.394,273.875 133.394,241.538 133.394,241.539 133.394,208.411 162.394,225.34 
	162.394,224.61 191.394,241.538 191.394,241.719 220.394,258.438 220.394,258.703 249.893,275.635 279.394,258.703 279.394,258.438 
	308.394,241.719 308.394,241.538 337.394,224.61 337.394,225.34 367.394,208.411 367.394,241.539 367.394,241.538 367.394,273.875 
	367.394,273.916 367.394,307.418 367.394,307.492 337.394,324.475 337.394,324.27 308.394,341.25 308.394,307.799 279.394,324.781 
	279.394,358.568 279.394,358.643 279.394,392.43 308.394,375.498 308.394,375.111 337.394,358.184 337.394,358.336 367.394,341.406 
	367.394,341.279 396.394,324.35 396.394,290.805 396.394,290.436 396.394,256.986 396.394,256.891 396.394,223.12 396.394,223.12 
	396.394,191.12 "/>
</svg>
